0
SECTION
2
HEADER
9
$INSUNITS
70
4
9
$ACADVER
1
AC1014
9
$HANDSEED
5
FFFF
0
ENDSEC
0
SECTION
2
TABLES
0
TABLE
2
VPORT
5
8
100
AcDbSymbolTable
0
ENDTAB
0
TABLE
2
LTYPE
5
5
100
AcDbSymbolTable
0
LTYPE
5
14
100
AcDbSymbolTableRecord
100
AcDbLinetypeTableRecord
2
BYBLOCK
70
0
0
LTYPE
5
15
100
AcDbSymbolTableRecord
100
AcDbLinetypeTableRecord
2
BYLAYER
70
0
0
ENDTAB
0
TABLE
2
LAYER
5
2
100
AcDbSymbolTable
70
2
0
LAYER
5
50
100
AcDbSymbolTableRecord
100
AcDbLayerTableRecord
2
0
70
0
6
CONTINUOUS
0
ENDTAB
0
TABLE
2
STYLE
5
3
100
AcDbSymbolTable
70
1
0
STYLE
5
11
100
AcDbSymbolTableRecord
100
AcDbTextStyleTableRecord
2
STANDARD
70
0
0
ENDTAB
0
TABLE
2
VIEW
5
6
100
AcDbSymbolTable
70
0
0
ENDTAB
0
TABLE
2
UCS
5
7
100
AcDbSymbolTable
70
0
0
ENDTAB
0
TABLE
2
APPID
5
9
100
AcDbSymbolTable
70
2
0
APPID
5
12
100
AcDbSymbolTableRecord
100
AcDbRegAppTableRecord
2
ACAD
70
0
0
ENDTAB
0
TABLE
2
DIMSTYLE
5
A
100
AcDbSymbolTable
70
1
0
ENDTAB
0
TABLE
2
BLOCK_RECORD
5
1
100
AcDbSymbolTable
70
1
0
BLOCK_RECORD
5
1F
100
AcDbSymbolTableRecord
100
AcDbBlockTableRecord
2
*MODEL_SPACE
0
BLOCK_RECORD
5
1B
100
AcDbSymbolTableRecord
100
AcDbBlockTableRecord
2
*PAPER_SPACE
0
ENDTAB
0
ENDSEC
0
SECTION
2
BLOCKS
0
BLOCK
5
20
100
AcDbEntity
100
AcDbBlockBegin
2
*MODEL_SPACE
0
ENDBLK
5
21
100
AcDbEntity
100
AcDbBlockEnd
0
BLOCK
5
1C
100
AcDbEntity
100
AcDbBlockBegin
2
*PAPER_SPACE
0
ENDBLK
5
1D
100
AcDbEntity
100
AcDbBlockEnd
0
ENDSEC
0
SECTION
2
ENTITIES
0
LINE
5
100
100
AcDbEntity
8
0
100
AcDbLine
10
-47.343299999999999
20
-88.327000000000012
30
0
11
-47.342399999999998
21
-88.328100000000006
31
0
0
LINE
5
101
100
AcDbEntity
8
0
100
AcDbLine
10
-26.477599999999999
20
-82.47120000000001
30
0
11
-26.041000000000004
21
-82.345500000000001
31
0
0
LINE
5
102
100
AcDbEntity
8
0
100
AcDbLine
10
21.1309
20
37.739699999999999
30
0
11
12.4533
21
37.739699999999999
31
0
0
LINE
5
103
100
AcDbEntity
8
0
100
AcDbLine
10
-12.0421
20
-75.817700000000002
30
0
11
-12.014200000000002
21
-75.804699999999997
31
0
0
LINE
5
104
100
AcDbEntity
8
0
100
AcDbLine
10
-38.199600000000004
20
-90.544399999999996
30
0
11
-38.182299999999998
21
-90.532300000000006
31
0
0
LINE
5
105
100
AcDbEntity
8
0
100
AcDbLine
10
14.5313
20
-57.467399999999998
30
0
11
14.5604
21
-57.467399999999998
31
0
0
LINE
5
106
100
AcDbEntity
8
0
100
AcDbLine
10
14.5604
20
-57.467399999999998
30
0
11
21.090399999999999
21
-57.467399999999998
31
0
0
LINE
5
107
100
AcDbEntity
8
0
100
AcDbLine
10
-35.293500000000002
20
-88.509500000000003
30
0
11
-26.804200000000002
21
-82.565200000000004
31
0
0
LINE
5
108
100
AcDbEntity
8
0
100
AcDbLine
10
-12.0421
20
-75.817700000000002
30
0
11
-12.0421
21
-75.817700000000002
31
0
0
LINE
5
109
100
AcDbEntity
8
0
100
AcDbLine
10
-12.014200000000002
20
-75.804699999999997
30
0
11
-11.9587
21
-75.778800000000004
31
0
0
LINE
5
110
100
AcDbEntity
8
0
100
AcDbLine
10
58.742900000000006
20
20.088699999999999
30
0
11
58.204300000000011
21
20.686900000000001
31
0
0
LINE
5
111
100
AcDbEntity
8
0
100
AcDbLine
10
37.766000000000005
20
-49.739700000000006
30
0
11
41.7333
21
-49.739700000000006
31
0
0
LINE
5
112
100
AcDbEntity
8
0
100
AcDbLine
10
-63.114600000000003
20
-66.188699999999997
30
0
11
-59.676299999999998
21
-70.560000000000002
31
0
0
LINE
5
113
100
AcDbEntity
8
0
100
AcDbLine
10
-11.9587
20
-75.778800000000004
30
0
11
-11.592200000000002
21
-75.352800000000002
31
0
0
LINE
5
114
100
AcDbEntity
8
0
100
AcDbLine
10
-11.408000000000001
20
-75.138800000000003
30
0
11
-10.0929
21
-69.487099999999998
31
0
0
LINE
5
115
100
AcDbEntity
8
0
100
AcDbLine
10
-0.72487900000000005
20
-55.745100000000001
30
0
11
14.5313
21
-57.467399999999998
31
0
0
LINE
5
116
100
AcDbEntity
8
0
100
AcDbLine
10
57.532899999999998
20
-3.6600000000000006
30
0
11
57.560200000000002
21
-1.28268
31
0
0
LINE
5
117
100
AcDbEntity
8
0
100
AcDbLine
10
-26.804200000000002
20
-82.565200000000004
30
0
11
-26.477599999999999
21
-82.47120000000001
31
0
0
LINE
5
118
100
AcDbEntity
8
0
100
AcDbLine
10
-47.342399999999998
20
-88.328100000000006
30
0
11
-47.281500000000001
21
-88.405000000000001
31
0
0
LINE
5
119
100
AcDbEntity
8
0
100
AcDbLine
10
-6.7374000000000001
20
-55.066300000000005
30
0
11
-0.72487900000000005
21
-55.745100000000001
31
0
0
LINE
5
120
100
AcDbEntity
8
0
100
AcDbLine
10
-70.009500000000003
20
-57.423099999999998
30
0
11
-63.114600000000003
21
-66.188699999999997
31
0
0
LINE
5
121
100
AcDbEntity
8
0
100
AcDbLine
10
-26.041000000000004
20
-82.345500000000001
30
0
11
-25.993300000000001
21
-82.3232
31
0
0
LINE
5
122
100
AcDbEntity
8
0
100
AcDbLine
10
-38.182299999999998
20
-90.532300000000006
30
0
11
-35.293700000000001
21
-88.509700000000009
31
0
0
LINE
5
123
100
AcDbEntity
8
0
100
AcDbLine
10
59.393999999999998
20
17.025300000000001
30
0
11
59.478200000000001
21
17.825800000000001
31
0
0
LINE
5
124
100
AcDbEntity
8
0
100
AcDbLine
10
-57.718699999999998
20
-75.219399999999993
30
0
11
-56.281999999999996
21
-77.034400000000005
31
0
0
LINE
5
125
100
AcDbEntity
8
0
100
AcDbLine
10
-56.281999999999996
20
-77.034400000000005
30
0
11
-47.343299999999999
21
-88.327000000000012
31
0
0
LINE
5
126
100
AcDbEntity
8
0
100
AcDbLine
10
-27.311399999999999
20
-80.115600000000015
30
0
11
-27.311399999999999
21
-80.115600000000015
31
0
0
LINE
5
127
100
AcDbEntity
8
0
100
AcDbLine
10
-8.7991399999999995
20
40.559700000000007
30
0
11
-9.7019699999999993
21
39.552800000000005
31
0
0
LINE
5
128
100
AcDbEntity
8
0
100
AcDbLine
10
-21.2759
20
-80.123500000000007
30
0
11
-21.275600000000004
21
-80.1233
31
0
0
LINE
5
129
100
AcDbEntity
8
0
100
AcDbLine
10
-25.993300000000001
20
-82.3232
30
0
11
-25.993300000000001
21
-82.3232
31
0
0
LINE
5
130
100
AcDbEntity
8
0
100
AcDbLine
10
58.742900000000006
20
15.562800000000001
30
0
11
59.145299999999999
21
16.259799999999998
31
0
0
LINE
5
131
100
AcDbEntity
8
0
100
AcDbLine
10
57.600800000000007
20
-26.252300000000002
30
0
11
57.600800000000007
21
-26.252300000000002
31
0
0
LINE
5
132
100
AcDbEntity
8
0
100
AcDbLine
10
-25.957600000000003
20
-82.306600000000003
30
0
11
-21.2759
21
-80.123500000000007
31
0
0
LINE
5
133
100
AcDbEntity
8
0
100
AcDbLine
10
55.993600000000008
20
-47.924900000000001
30
0
11
56.798500000000004
21
-47.924900000000001
31
0
0
LINE
5
134
100
AcDbEntity
8
0
100
AcDbLine
10
0.14984800000000001
20
40.559700000000007
30
0
11
0.084338300000000019
21
40.559700000000007
31
0
0
LINE
5
135
100
AcDbEntity
8
0
100
AcDbLine
10
57.774600000000007
20
9.695310000000001
30
0
11
57.892400000000002
21
14.738
31
0
0
LINE
5
136
100
AcDbEntity
8
0
100
AcDbLine
10
57.774600000000007
20
-33.695300000000003
30
0
11
57.600800000000007
21
-26.252300000000002
31
0
0
LINE
5
137
100
AcDbEntity
8
0
100
AcDbLine
10
12.4533
20
37.739699999999999
30
0
11
9.7859499999999997
21
39.260000000000005
31
0
0
LINE
5
138
100
AcDbEntity
8
0
100
AcDbLine
10
34.279299999999999
20
25.739699999999999
30
0
11
31.880100000000002
21
31.287700000000001
31
0
0
LINE
5
139
100
AcDbEntity
8
0
100
AcDbLine
10
53.810600000000008
20
-46.94680000000001
30
0
11
53.819900000000004
21
-46.957099999999997
31
0
0
LINE
5
140
100
AcDbEntity
8
0
100
AcDbLine
10
58.321000000000005
20
-40.761800000000001
30
0
11
57.935600000000001
21
-40.590200000000003
31
0
0
LINE
5
141
100
AcDbEntity
8
0
100
AcDbLine
10
29.135500000000004
20
37.497199999999999
30
0
11
28.978400000000004
21
37.739699999999999
31
0
0
LINE
5
142
100
AcDbEntity
8
0
100
AcDbLine
10
-11.592200000000002
20
-75.352800000000002
30
0
11
-11.408000000000001
21
-75.138800000000003
31
0
0
LINE
5
143
100
AcDbEntity
8
0
100
AcDbLine
10
-10.0929
20
-69.487099999999998
30
0
11
-6.7374000000000001
21
-55.066300000000005
31
0
0
LINE
5
144
100
AcDbEntity
8
0
100
AcDbLine
10
21.090399999999999
20
-57.467399999999998
30
0
11
21.126400000000004
21
-57.467399999999998
31
0
0
LINE
5
145
100
AcDbEntity
8
0
100
AcDbLine
10
-57.213999999999999
20
24.800500000000003
30
0
11
-58.5017
21
13.429200000000002
31
0
0
LINE
5
146
100
AcDbEntity
8
0
100
AcDbLine
10
-58.5017
20
13.429200000000002
30
0
11
-58.586400000000005
21
11.9078
31
0
0
LINE
5
147
100
AcDbEntity
8
0
100
AcDbLine
10
56.798500000000004
20
-47.924900000000001
30
0
11
57.585800000000006
21
-47.757599999999996
31
0
0
LINE
5
148
100
AcDbEntity
8
0
100
AcDbLine
10
56.0306
20
21.654699999999998
30
0
11
55.22570000000001
21
21.654699999999998
31
0
0
LINE
5
149
100
AcDbEntity
8
0
100
AcDbLine
10
57.532899999999998
20
-20.340000000000003
30
0
11
57.532899999999998
21
-3.6600000000000006
31
0
0
LINE
5
150
100
AcDbEntity
8
0
100
AcDbLine
10
57.600800000000007
20
2.25231
30
0
11
57.600800000000007
21
2.25231
31
0
0
LINE
5
151
100
AcDbEntity
8
0
100
AcDbLine
10
-68.713899999999995
20
-47.762099999999997
30
0
11
-69.067700000000002
21
-48.131200000000007
31
0
0
LINE
5
152
100
AcDbEntity
8
0
100
AcDbLine
10
55.132900000000006
20
21.635000000000005
30
0
11
54.749499999999998
21
22.0154
31
0
0
LINE
5
153
100
AcDbEntity
8
0
100
AcDbLine
10
-58.591000000000008
20
-38.377299999999998
30
0
11
-59.192700000000009
21
-41.095199999999998
31
0
0
LINE
5
154
100
AcDbEntity
8
0
100
AcDbLine
10
9.7859499999999997
20
39.260000000000005
30
0
11
7.5056799999999999
21
40.559700000000007
31
0
0
LINE
5
155
100
AcDbEntity
8
0
100
AcDbLine
10
7.5056799999999999
20
40.559700000000007
30
0
11
0.14984800000000001
21
40.559700000000007
31
0
0
LINE
5
156
100
AcDbEntity
8
0
100
AcDbLine
10
57.560200000000002
20
-1.28268
30
0
11
57.600800000000007
21
2.25231
31
0
0
LINE
5
157
100
AcDbEntity
8
0
100
AcDbLine
10
58.204300000000011
20
20.686900000000001
30
0
11
57.553200000000004
21
21.16
31
0
0
LINE
5
158
100
AcDbEntity
8
0
100
AcDbLine
10
-69.792900000000003
20
-53.93610000000001
30
0
11
-70.009500000000003
21
-57.423099999999998
31
0
0
LINE
5
159
100
AcDbEntity
8
0
100
AcDbLine
10
-69.067700000000002
20
-48.131200000000007
30
0
11
-69.067700000000002
21
-48.131200000000007
31
0
0
LINE
5
160
100
AcDbEntity
8
0
100
AcDbLine
10
31.880100000000002
20
31.287700000000001
30
0
11
29.313800000000004
21
37.222000000000001
31
0
0
LINE
5
161
100
AcDbEntity
8
0
100
AcDbLine
10
55.22570000000001
20
21.654699999999998
30
0
11
55.132900000000006
21
21.635000000000005
31
0
0
LINE
5
162
100
AcDbEntity
8
0
100
AcDbLine
10
58.972200000000008
20
-41.234900000000003
30
0
11
58.321000000000005
21
-40.761800000000001
31
0
0
LINE
5
163
100
AcDbEntity
8
0
100
AcDbLine
10
-11.3276
20
37.739699999999999
30
0
11
-21.4251
21
37.739699999999999
31
0
0
LINE
5
164
100
AcDbEntity
8
0
100
AcDbLine
10
-9.7019699999999993
20
39.552800000000005
30
0
11
-11.3276
21
37.739699999999999
31
0
0
LINE
5
165
100
AcDbEntity
8
0
100
AcDbLine
10
57.553200000000004
20
21.16
30
0
11
56.817900000000002
21
21.487300000000001
31
0
0
LINE
5
166
100
AcDbEntity
8
0
100
AcDbLine
10
-56.6629
20
-29.667899999999999
30
0
11
-58.55510000000001
21
-38.215299999999999
31
0
0
LINE
5
167
100
AcDbEntity
8
0
100
AcDbLine
10
57.892400000000002
20
14.738
30
0
11
58.204300000000011
21
14.964700000000002
31
0
0
LINE
5
168
100
AcDbEntity
8
0
100
AcDbLine
10
59.145299999999999
20
16.259799999999998
30
0
11
59.393999999999998
21
17.025300000000001
31
0
0
LINE
5
169
100
AcDbEntity
8
0
100
AcDbLine
10
59.393999999999998
20
18.626200000000001
30
0
11
59.145299999999999
21
19.3917
31
0
0
LINE
5
170
100
AcDbEntity
8
0
100
AcDbLine
10
57.600800000000007
20
2.25231
30
0
11
57.774600000000007
21
9.695310000000001
31
0
0
LINE
5
171
100
AcDbEntity
8
0
100
AcDbLine
10
58.204300000000011
20
14.964700000000002
30
0
11
58.742900000000006
21
15.562800000000001
31
0
0
LINE
5
172
100
AcDbEntity
8
0
100
AcDbLine
10
-63.167400000000001
20
-43.878300000000003
30
0
11
-68.680899999999994
21
-47.738900000000008
31
0
0
LINE
5
173
100
AcDbEntity
8
0
100
AcDbLine
10
21.191200000000002
20
37.739699999999999
30
0
11
21.1309
21
37.739699999999999
31
0
0
LINE
5
174
100
AcDbEntity
8
0
100
AcDbLine
10
59.478200000000001
20
17.825800000000001
30
0
11
59.393999999999998
21
18.626200000000001
31
0
0
LINE
5
175
100
AcDbEntity
8
0
100
AcDbLine
10
59.145299999999999
20
19.3917
30
0
11
58.742900000000006
21
20.088699999999999
31
0
0
LINE
5
176
100
AcDbEntity
8
0
100
AcDbLine
10
-30.647099999999998
20
37.739699999999999
30
0
11
-41.524600000000007
21
37.739699999999999
31
0
0
LINE
5
177
100
AcDbEntity
8
0
100
AcDbLine
10
59.510700000000007
20
-41.832999999999998
30
0
11
58.972200000000008
21
-41.234900000000003
31
0
0
LINE
5
178
100
AcDbEntity
8
0
100
AcDbLine
10
54.471000000000004
20
-47.430200000000006
30
0
11
55.206300000000006
21
-47.757599999999996
31
0
0
LINE
5
179
100
AcDbEntity
8
0
100
AcDbLine
10
-59.192700000000009
20
-41.095199999999998
30
0
11
-63.167400000000001
21
-43.878300000000003
31
0
0
LINE
5
180
100
AcDbEntity
8
0
100
AcDbLine
10
-27.067800000000002
20
37.739699999999999
30
0
11
-29.582100000000004
21
37.739699999999999
31
0
0
LINE
5
181
100
AcDbEntity
8
0
100
AcDbLine
10
0.084338300000000019
20
40.559700000000007
30
0
11
-8.75624
21
40.559700000000007
31
0
0
LINE
5
182
100
AcDbEntity
8
0
100
AcDbLine
10
-58.55510000000001
20
-38.215299999999999
30
0
11
-58.591000000000008
21
-38.377299999999998
31
0
0
LINE
5
183
100
AcDbEntity
8
0
100
AcDbLine
10
-29.582100000000004
20
37.739699999999999
30
0
11
-29.6111
21
37.739699999999999
31
0
0
LINE
5
184
100
AcDbEntity
8
0
100
AcDbLine
10
58.972200000000008
20
-46.957099999999997
30
0
11
59.510700000000007
21
-46.358999999999995
31
0
0
LINE
5
185
100
AcDbEntity
8
0
100
AcDbLine
10
-58.586400000000005
20
-11.9078
30
0
11
-58.5017
21
-13.429200000000002
31
0
0
LINE
5
186
100
AcDbEntity
8
0
100
AcDbLine
10
58.321000000000005
20
-47.430200000000006
30
0
11
58.972200000000008
21
-46.957099999999997
31
0
0
LINE
5
187
100
AcDbEntity
8
0
100
AcDbLine
10
57.585800000000006
20
-47.757599999999996
30
0
11
58.321000000000005
21
-47.430200000000006
31
0
0
LINE
5
188
100
AcDbEntity
8
0
100
AcDbLine
10
56.817900000000002
20
21.487300000000001
30
0
11
56.0306
21
21.654699999999998
31
0
0
LINE
5
189
100
AcDbEntity
8
0
100
AcDbLine
10
-57.213999999999999
20
-24.800500000000003
30
0
11
-56.6629
21
-29.667899999999999
31
0
0
LINE
5
190
100
AcDbEntity
8
0
100
AcDbLine
10
60.16190000000001
20
-43.295500000000004
30
0
11
59.91320000000001
21
-42.530099999999997
31
0
0
LINE
5
191
100
AcDbEntity
8
0
100
AcDbLine
10
-56.6554
20
29.734100000000005
30
0
11
-57.213999999999999
21
24.800500000000003
31
0
0
LINE
5
192
100
AcDbEntity
8
0
100
AcDbLine
10
59.510700000000007
20
-46.358999999999995
30
0
11
59.91320000000001
21
-45.661900000000003
31
0
0
LINE
5
193
100
AcDbEntity
8
0
100
AcDbLine
10
-58.5017
20
-13.429200000000002
30
0
11
-57.213999999999999
21
-24.800500000000003
31
0
0
LINE
5
194
100
AcDbEntity
8
0
100
AcDbLine
10
59.91320000000001
20
-45.661900000000003
30
0
11
60.16190000000001
21
-44.896500000000003
31
0
0
LINE
5
195
100
AcDbEntity
8
0
100
AcDbLine
10
41.7333
20
-49.739700000000006
30
0
11
50.995500000000007
21
-49.739700000000006
31
0
0
LINE
5
196
100
AcDbEntity
8
0
100
AcDbLine
10
-47.281500000000001
20
-88.405000000000001
30
0
11
-40.515500000000003
21
-89.998900000000006
31
0
0
LINE
5
197
100
AcDbEntity
8
0
100
AcDbLine
10
57.600800000000007
20
-26.252300000000002
30
0
11
57.560200000000002
21
-22.717300000000002
31
0
0
LINE
5
198
100
AcDbEntity
8
0
100
AcDbLine
10
-49.655400000000007
20
36.734099999999998
30
0
11
-56.6554
21
29.734100000000005
31
0
0
LINE
5
199
100
AcDbEntity
8
0
100
AcDbLine
10
-48.7605
20
36.972499999999997
30
0
11
-49.655400000000007
21
36.734099999999998
31
0
0
LINE
5
200
100
AcDbEntity
8
0
100
AcDbLine
10
-7.1712800000000012
20
-52.478000000000009
30
0
11
-7.1712800000000012
21
-52.478000000000009
31
0
0
LINE
5
201
100
AcDbEntity
8
0
100
AcDbLine
10
-45.880800000000008
20
37.739699999999999
30
0
11
-48.7605
21
36.972499999999997
31
0
0
LINE
5
202
100
AcDbEntity
8
0
100
AcDbLine
10
-45.859300000000005
20
37.739699999999999
30
0
11
-45.880800000000008
21
37.739699999999999
31
0
0
LINE
5
203
100
AcDbEntity
8
0
100
AcDbLine
10
-21.4251
20
37.739699999999999
30
0
11
-27.067800000000002
21
37.739699999999999
31
0
0
LINE
5
204
100
AcDbEntity
8
0
100
AcDbLine
10
-29.6111
20
37.739699999999999
30
0
11
-30.647099999999998
21
37.739699999999999
31
0
0
LINE
5
205
100
AcDbEntity
8
0
100
AcDbLine
10
-69.457400000000007
20
-48.5379
30
0
11
-69.792900000000003
21
-53.93610000000001
31
0
0
LINE
5
206
100
AcDbEntity
8
0
100
AcDbLine
10
-69.067700000000002
20
-48.131200000000007
30
0
11
-69.457400000000007
21
-48.5379
31
0
0
LINE
5
207
100
AcDbEntity
8
0
100
AcDbLine
10
34.179699999999997
20
-49.739700000000006
30
0
11
34.179699999999997
21
-49.739700000000006
31
0
0
LINE
5
208
100
AcDbEntity
8
0
100
AcDbLine
10
-69.457400000000007
20
-48.5379
30
0
11
-69.457400000000007
21
-48.5379
31
0
0
LINE
5
209
100
AcDbEntity
8
0
100
AcDbLine
10
-41.524600000000007
20
37.739699999999999
30
0
11
-45.859300000000005
21
37.739699999999999
31
0
0
LINE
5
210
100
AcDbEntity
8
0
100
AcDbLine
10
53.819900000000004
20
-46.957099999999997
30
0
11
54.471000000000004
21
-47.430200000000006
31
0
0
LINE
5
211
100
AcDbEntity
8
0
100
AcDbLine
10
28.978400000000004
20
37.739699999999999
30
0
11
21.191200000000002
21
37.739699999999999
31
0
0
LINE
5
212
100
AcDbEntity
8
0
100
AcDbLine
10
60.246000000000002
20
-44.096000000000004
30
0
11
60.16190000000001
21
-43.295500000000004
31
0
0
LINE
5
213
100
AcDbEntity
8
0
100
AcDbLine
10
-8.75624
20
40.559700000000007
30
0
11
-8.7991399999999995
21
40.559700000000007
31
0
0
LINE
5
214
100
AcDbEntity
8
0
100
AcDbLine
10
60.16190000000001
20
-44.896500000000003
30
0
11
60.246000000000002
21
-44.096000000000004
31
0
0
LINE
5
215
100
AcDbEntity
8
0
100
AcDbLine
10
29.313800000000004
20
37.222000000000001
30
0
11
29.135500000000004
21
37.497199999999999
31
0
0
LINE
5
216
100
AcDbEntity
8
0
100
AcDbLine
10
-57.988199999999999
20
-74.578100000000006
30
0
11
-57.718699999999998
21
-75.219399999999993
31
0
0
LINE
5
217
100
AcDbEntity
8
0
100
AcDbLine
10
-68.680899999999994
20
-47.738900000000008
30
0
11
-68.680899999999994
21
-47.738900000000008
31
0
0
LINE
5
218
100
AcDbEntity
8
0
100
AcDbLine
10
57.935600000000001
20
-40.590200000000003
30
0
11
57.774600000000007
21
-33.695300000000003
31
0
0
LINE
5
219
100
AcDbEntity
8
0
100
AcDbLine
10
-59.676299999999998
20
-70.560000000000002
30
0
11
-57.988199999999999
21
-74.578100000000006
31
0
0
LINE
5
220
100
AcDbEntity
8
0
100
AcDbLine
10
-58.776499999999999
20
8.4899899999999988
30
0
11
-58.776499999999999
21
-8.4899899999999988
31
0
0
LINE
5
221
100
AcDbEntity
8
0
100
AcDbLine
10
21.126400000000004
20
-57.467399999999998
30
0
11
34.601700000000001
21
-57.467399999999998
31
0
0
LINE
5
222
100
AcDbEntity
8
0
100
AcDbLine
10
57.560200000000002
20
-22.717300000000002
30
0
11
57.532899999999998
21
-20.340000000000003
31
0
0
LINE
5
223
100
AcDbEntity
8
0
100
AcDbLine
10
54.749499999999998
20
22.0154
30
0
11
50.995500000000007
21
25.739699999999999
31
0
0
LINE
5
224
100
AcDbEntity
8
0
100
AcDbLine
10
-58.586400000000005
20
11.9078
30
0
11
-58.776499999999999
21
8.4899899999999988
31
0
0
LINE
5
225
100
AcDbEntity
8
0
100
AcDbLine
10
-35.293700000000001
20
-88.509700000000009
30
0
11
-35.293500000000002
21
-88.509500000000003
31
0
0
LINE
5
226
100
AcDbEntity
8
0
100
AcDbLine
10
-68.680899999999994
20
-47.738900000000008
30
0
11
-68.713899999999995
21
-47.762099999999997
31
0
0
LINE
5
227
100
AcDbEntity
8
0
100
AcDbLine
10
59.91320000000001
20
-42.530099999999997
30
0
11
59.510700000000007
21
-41.832999999999998
31
0
0
LINE
5
228
100
AcDbEntity
8
0
100
AcDbLine
10
41.7333
20
25.739699999999999
30
0
11
34.279299999999999
21
25.739699999999999
31
0
0
LINE
5
229
100
AcDbEntity
8
0
100
AcDbLine
10
55.206300000000006
20
-47.757599999999996
30
0
11
55.993600000000008
21
-47.924900000000001
31
0
0
LINE
5
230
100
AcDbEntity
8
0
100
AcDbLine
10
-25.993300000000001
20
-82.3232
30
0
11
-25.957600000000003
21
-82.306600000000003
31
0
0
LINE
5
231
100
AcDbEntity
8
0
100
AcDbLine
10
35.953499999999998
20
-54.1661
30
0
11
37.766000000000005
21
-49.739700000000006
31
0
0
LINE
5
232
100
AcDbEntity
8
0
100
AcDbLine
10
50.995500000000007
20
25.739699999999999
30
0
11
41.7333
21
25.739699999999999
31
0
0
LINE
5
233
100
AcDbEntity
8
0
100
AcDbLine
10
-11.592200000000002
20
-75.352800000000002
30
0
11
-11.592200000000002
21
-75.352800000000002
31
0
0
LINE
5
234
100
AcDbEntity
8
0
100
AcDbLine
10
-21.275600000000004
20
-80.1233
30
0
11
-12.0421
21
-75.817700000000002
31
0
0
LINE
5
235
100
AcDbEntity
8
0
100
AcDbLine
10
-58.776499999999999
20
-8.4899899999999988
30
0
11
-58.586400000000005
21
-11.9078
31
0
0
LINE
5
236
100
AcDbEntity
8
0
100
AcDbLine
10
34.601700000000001
20
-57.467399999999998
30
0
11
35.953499999999998
21
-54.1661
31
0
0
LINE
5
237
100
AcDbEntity
8
0
100
AcDbLine
10
50.995500000000007
20
-49.739700000000006
30
0
11
53.810600000000008
21
-46.94680000000001
31
0
0
LINE
5
238
100
AcDbEntity
8
0
100
AcDbLine
10
-40.515500000000003
20
-89.998900000000006
30
0
11
-38.199600000000004
21
-90.544399999999996
31
0
0
CIRCLE
5
239
100
AcDbEntity
8
0
100
AcDbCircle
10
-54.05887762241214
20
-41.61736320069113
30
0
40
2.0000000000000009
210
0
220
0
230
1
0
CIRCLE
5
240
100
AcDbEntity
8
0
100
AcDbCircle
10
-15.228416788003623
20
-71.75889957214811
30
0
40
1.9999999999999976
210
0
220
0
230
1
0
CIRCLE
5
241
100
AcDbEntity
8
0
100
AcDbCircle
10
56.37808958946701
20
-44.125955968896918
30
0
40
2.0000000000000044
210
0
220
0
230
1
0
CIRCLE
5
242
100
AcDbEntity
8
0
100
AcDbCircle
10
55.625136680198075
20
17.804302402640801
30
0
40
1.9999999999999996
210
0
220
0
230
1
0
CIRCLE
5
243
100
AcDbEntity
8
0
100
AcDbCircle
10
-46.532820636928953
20
31.529944330914596
30
0
40
1.9999999999999964
210
0
220
0
230
1
0
ENDSEC
0
SECTION
2
OBJECTS
0
DICTIONARY
5
C
100
AcDbDictionary
3
ACAD_GROUP
350
D
3
ACAD_MLINESTYLE
350
17
0
DICTIONARY
5
D
100
AcDbDictionary
0
DICTIONARY
5
1A
330
C
100
AcDbDictionary
0
DICTIONARY
5
17
100
AcDbDictionary
0
ENDSEC
0
EOF
